<svg xmlns="http://www.w3.org/2000/svg" viewBox="0 0 440 100" width="440" height="100">
<g transform="translate(10.0 12.0) scale(0.76) "><g transform="rotate(-8 51 50)"><path d="M 92 50 L 10 12 L 32 45.6 Z" fill="#FFFFFF"/><path d="M 92 50 L 10 88 L 32 54.4 Z" fill="rgba(255,255,255,0.72)"/></g></g>
<g transform="translate(108.00 67.73) scale(1,-1)">
  <path d="M 19.20 8.26 L 28.16 35.46 L 37.70 35.46 L 24.58 0.00 L 13.70 0.00 L 0.64 35.46 L 10.24 35.46 L 19.20 8.26 Z M 75.72 18.50 Q 75.72 16.58 75.46 15.04 L 49.54 15.04 Q 49.86 11.20 52.23 9.02 Q 54.60 6.85 58.05 6.85 Q 63.04 6.85 65.16 11.14 L 74.82 11.14 Q 73.28 6.02 68.93 2.72 Q 64.58 -0.58 58.24 -0.58 Q 53.12 -0.58 49.06 1.69 Q 45.00 3.97 42.72 8.13 Q 40.45 12.29 40.45 17.73 Q 40.45 23.23 42.69 27.39 Q 44.93 31.55 48.96 33.79 Q 53.00 36.03 58.24 36.03 Q 63.30 36.03 67.30 33.85 Q 71.30 31.68 73.51 27.68 Q 75.72 23.68 75.72 18.50 Z M 66.44 21.06 Q 66.37 24.51 63.94 26.59 Q 61.51 28.67 57.99 28.67 Q 54.66 28.67 52.39 26.65 Q 50.12 24.64 49.60 21.06 L 66.44 21.06 Z M 91.20 29.95 Q 92.92 32.77 95.70 34.37 Q 98.49 35.97 102.08 35.97 L 102.08 26.56 L 99.71 26.56 Q 95.48 26.56 93.34 24.57 Q 91.20 22.59 91.20 17.66 L 91.20 0.00 L 82.24 0.00 L 82.24 35.46 L 91.20 35.46 L 91.20 29.95 Z M 121.66 -0.58 Q 117.31 -0.58 113.85 0.99 Q 110.40 2.56 108.38 5.25 Q 106.37 7.94 106.18 11.20 L 115.20 11.20 Q 115.46 9.15 117.22 7.80 Q 118.98 6.46 121.60 6.46 Q 124.16 6.46 125.60 7.48 Q 127.04 8.51 127.04 10.11 Q 127.04 11.84 125.28 12.70 Q 123.52 13.57 119.68 14.59 Q 115.71 15.55 113.18 16.57 Q 110.66 17.60 108.83 19.71 Q 107.01 21.82 107.01 25.41 Q 107.01 28.35 108.70 30.78 Q 110.40 33.22 113.57 34.62 Q 116.74 36.03 121.02 36.03 Q 127.36 36.03 131.13 32.86 Q 134.91 29.70 135.30 24.32 L 126.72 24.32 Q 126.53 26.43 124.96 27.68 Q 123.39 28.93 120.77 28.93 Q 118.34 28.93 117.02 28.03 Q 115.71 27.14 115.71 25.54 Q 115.71 23.74 117.50 22.81 Q 119.30 21.89 123.07 20.93 Q 126.91 19.97 129.40 18.94 Q 131.90 17.92 133.72 15.77 Q 135.55 13.63 135.62 10.11 Q 135.62 7.04 133.92 4.61 Q 132.22 2.18 129.05 0.80 Q 125.89 -0.58 121.66 -0.58 Z M 175.94 18.50 Q 175.94 16.58 175.68 15.04 L 149.76 15.04 Q 150.08 11.20 152.45 9.02 Q 154.82 6.85 158.27 6.85 Q 163.26 6.85 165.38 11.14 L 175.04 11.14 Q 173.50 6.02 169.15 2.72 Q 164.80 -0.58 158.46 -0.58 Q 153.34 -0.58 149.28 1.69 Q 145.22 3.97 142.94 8.13 Q 140.67 12.29 140.67 17.73 Q 140.67 23.23 142.91 27.39 Q 145.15 31.55 149.18 33.79 Q 153.22 36.03 158.46 36.03 Q 163.52 36.03 167.52 33.85 Q 171.52 31.68 173.73 27.68 Q 175.94 23.68 175.94 18.50 Z M 166.66 21.06 Q 166.59 24.51 164.16 26.59 Q 161.73 28.67 158.21 28.67 Q 154.88 28.67 152.61 26.65 Q 150.34 24.64 149.82 21.06 L 166.66 21.06 Z M 202.11 35.97 Q 208.45 35.97 212.35 31.97 Q 216.26 27.97 216.26 20.80 L 216.26 0.00 L 207.30 0.00 L 207.30 19.58 Q 207.30 23.81 205.18 26.08 Q 203.07 28.35 199.43 28.35 Q 195.71 28.35 193.57 26.08 Q 191.43 23.81 191.43 19.58 L 191.43 0.00 L 182.47 0.00 L 182.47 35.46 L 191.43 35.46 L 191.43 31.04 Q 193.22 33.34 196.00 34.65 Q 198.79 35.97 202.11 35.97 Z M 222.46 17.86 Q 222.46 23.23 224.60 27.39 Q 226.75 31.55 230.46 33.79 Q 234.17 36.03 238.72 36.03 Q 242.17 36.03 245.31 34.52 Q 248.45 33.02 250.30 30.53 L 250.30 47.36 L 259.39 47.36 L 259.39 0.00 L 250.30 0.00 L 250.30 5.25 Q 248.64 2.62 245.63 1.02 Q 242.62 -0.58 238.65 -0.58 Q 234.17 -0.58 230.46 1.72 Q 226.75 4.03 224.60 8.22 Q 222.46 12.42 222.46 17.86 Z M 250.37 17.73 Q 250.37 20.99 249.09 23.32 Q 247.81 25.66 245.63 26.91 Q 243.45 28.16 240.96 28.16 Q 238.46 28.16 236.35 26.94 Q 234.24 25.73 232.92 23.39 Q 231.61 21.06 231.61 17.86 Q 231.61 14.66 232.92 12.26 Q 234.24 9.86 236.38 8.58 Q 238.53 7.30 240.96 7.30 Q 243.45 7.30 245.63 8.54 Q 247.81 9.79 249.09 12.12 Q 250.37 14.46 250.37 17.73 Z" fill="#FFFFFF"/>
  <g transform="translate(263.74 0)"><path d="M 8.96 39.68 Q 6.59 39.68 5.02 41.18 Q 3.46 42.69 3.46 44.93 Q 3.46 47.17 5.02 48.67 Q 6.59 50.18 8.96 50.18 Q 11.33 50.18 12.89 48.67 Q 14.46 47.17 14.46 44.93 Q 14.46 42.69 12.89 41.18 Q 11.33 39.68 8.96 39.68 Z M 13.38 35.46 L 13.38 0.00 L 4.42 0.00 L 4.42 35.46 L 13.38 35.46 Z M 37.95 -0.58 Q 32.83 -0.58 28.73 1.69 Q 24.64 3.97 22.30 8.13 Q 19.97 12.29 19.97 17.73 Q 19.97 23.17 22.37 27.33 Q 24.77 31.49 28.93 33.76 Q 33.09 36.03 38.21 36.03 Q 43.33 36.03 47.49 33.76 Q 51.65 31.49 54.05 27.33 Q 56.45 23.17 56.45 17.73 Q 56.45 12.29 53.98 8.13 Q 51.52 3.97 47.32 1.69 Q 43.13 -0.58 37.95 -0.58 Z M 37.95 7.23 Q 40.38 7.23 42.52 8.41 Q 44.67 9.60 45.95 11.97 Q 47.23 14.34 47.23 17.73 Q 47.23 22.78 44.57 25.50 Q 41.92 28.22 38.08 28.22 Q 34.24 28.22 31.64 25.50 Q 29.05 22.78 29.05 17.73 Q 29.05 12.67 31.58 9.95 Q 34.11 7.23 37.95 7.23 Z" fill="#FFFFFF"/></g>
</g>
</svg>
